<svg viewBox="0 0 24 24" fill="none" stroke="currentColor" stroke-width="1.5"><path fill-rule="evenodd" clip-rule="evenodd" d="M8.89355 10.2492V6.75076C8.89357 6.57171 8.9893 6.40634 9.14456 6.31717C9.29981 6.22799 9.4909 6.22863 9.64555 6.31884L12.6454 8.06808C12.7991 8.15767 12.8936 8.32214 12.8936 8.5C12.8936 8.67785 12.7991 8.84232 12.6454 8.93192L9.64552 10.6812C9.49087 10.7713 9.2998 10.772 9.14455 10.6828C8.9893 10.5936 8.89357 10.4283 8.89355 10.2492Z" stroke-width="1.5" stroke-linecap="round" stroke-linejoin="round"/><path d="M9 15H5C3.34315 15 2 13.6569 2 12V5C2 3.34315 3.34315 2 5 2H16C17.6569 2 19 3.34315 19 5V8" stroke-width="1.5" stroke-linecap="round" stroke-linejoin="round"/><path fill-rule="evenodd" clip-rule="evenodd" d="M15 16.9998L14.4145 16.4143C14.1493 16.149 13.7895 16 13.4144 16C13.0393 16 12.6795 16.149 12.4143 16.4143V16.4143C11.9376 16.891 11.8636 17.6379 12.2375 18.1988L14.1776 21.1093C14.5485 21.6658 15.173 22 15.8418 22H19.6379C20.6465 22 21.4973 21.2489 21.6224 20.248L21.9844 17.3512C22.1177 16.284 21.3832 15.3024 20.3217 15.1293L18 14.7507V12.5C18 11.6716 17.3284 11 16.5 11V11C15.6715 11 15 11.6716 15 12.5V16.9998Z" stroke-width="1.5" stroke-linecap="round" stroke-linejoin="round"/></svg>